<svg width="300" height="200" viewBox="0 0 300 200" fill="none" xmlns="http://www.w3.org/2000/svg">
  <rect width="300" height="200" fill="#F3F4F6"/>
  <path d="M150 80C145.582 80 142 83.5817 142 88C142 92.4183 145.582 96 150 96C154.418 96 158 92.4183 158 88C158 83.5817 154.418 80 150 80ZM150 94C146.687 94 144 91.3137 144 88C144 84.6863 146.687 82 150 82C153.313 82 156 84.6863 156 88C156 91.3137 153.313 94 150 94Z" fill="#9CA3AF"/>
  <path d="M156 88C156 91.3137 153.313 94 150 94C146.687 94 144 91.3137 144 88C144 84.6863 146.687 82 150 82C153.313 82 156 84.6863 156 88Z" fill="#9CA3AF"/>
  <path d="M100 50H200V150H100V50ZM102 148H198V52H102V148Z" fill="#9CA3AF"/>
  <path d="M150 120C143.373 120 138 114.627 138 108C138 101.373 143.373 96 150 96C156.627 96 162 101.373 162 108C162 114.627 156.627 120 150 120Z" fill="#9CA3AF"/>
  <text x="50%" y="180" text-anchor="middle" fill="#9CA3AF" font-family="Arial" font-size="14">No Image Available</text>
</svg>
